<?xml version="1.0" encoding="UTF-8"?>
<svg id="Capa_1" xmlns="http://www.w3.org/2000/svg" version="1.1" viewBox="0 0 800 800">
  <!-- Generator: Adobe Illustrator 30.2.1, SVG Export Plug-In . SVG Version: 2.1.1 Build 1)  -->
  <defs>
    <style>
      .st0 {
        fill: #fff;
      }
    </style>
  </defs>
  <path class="st0" d="M798.97,312.05c-1.29-15.46-21.89-19.32-28.34-7.73-20.61-12.88-47.66-21.9-66.98-32.2-32.2-16.74-66.97-34.78-103.04-45.08-7.73-11.59-29.62-7.73-28.34,9.02,3.86,193.2-243.43,189.34-381.25,166.15,0-15.46,1.29-30.91,1.29-45.08v-19.32c0-3.86-6.44-15.46-6.44-10.3,0-1.29-1.29-2.58-1.29-3.86-14.17-39.93-167.44,61.82-182.9,87.58-2.58,5.15-2.58,12.88,2.58,18.03,2.58,1.29,5.15,3.86,6.44,6.44h0c-1.29,2.58-1.29,5.15-1.29,6.44,1.29,16.74,20.61,32.2,30.91,42.5,30.91,32.2,64.4,65.69,100.46,92.73,5.15,3.86,15.46,2.58,19.32-2.58,1.29-1.29,1.29-2.58,2.58-2.58,1.29-1.29,1.29-3.86,1.29-6.44,1.29-1.29,2.58-3.86,3.86-6.44,1.29-15.46,1.29-34.78,6.44-48.95,0-1.29,1.29-2.58,1.29-3.86,185.47,88.88,649.16,88.88,623.4-194.48ZM171.71,476.91h-5.15c-20.61,0-18.03,39.93-15.46,63.11-20.61-16.74-39.93-36.06-59.25-54.1-14.17-12.88-27.05-25.76-39.93-39.93-3.86-5.15-9.02-9.02-12.88-14.17-2.58-2.58-5.15-5.15-7.73-6.44-2.58-1.29-3.86-1.29-3.86-1.29l-1.29-1.29c10.3-7.73,25.76-20.61,28.34-21.9,19.32-12.88,38.64-23.19,59.25-33.49,7.73-3.86,33.49-11.59,52.81-21.9v3.86c-2.58,16.74-5.15,33.49-5.15,51.52,0,11.59,9.02,15.46,16.74,15.46h0c144.26,61.82,417.31,28.34,426.33-163.58,28.34,14.17,55.38,28.34,83.72,43.79,20.61,11.59,55.38,37.35,82.43,39.93-15.46,251.16-441.79,188.05-598.92,140.39Z"/>
</svg>