<?xml version="1.0" encoding="UTF-8"?>
<svg id="Capa_1" xmlns="http://www.w3.org/2000/svg" version="1.1" viewBox="0 0 800 800">
  <!-- Generator: Adobe Illustrator 30.2.1, SVG Export Plug-In . SVG Version: 2.1.1 Build 1)  -->
  <defs>
    <style>
      .st0 {
        fill: #fff;
      }
    </style>
  </defs>
  <path class="st0" d="M791.97,317.39c-63.02-30.3-127.26-55.75-178.16-104.23-10.91-9.7-24.24-2.42-25.45,10.91-3.64,30.3-4.85,59.39-4.85,88.48-58.17-18.18-136.95-6.06-192.71-10.91-118.78-8.48-237.55-35.15-356.33-31.51-10.91,0-19.39,13.33-13.33,23.03,31.51,47.27,71.51,86.05,109.08,127.26-40,49.69-87.26,90.9-126.05,141.8-8.48,10.91-3.64,26.66,10.91,27.88,204.83,15.76,385.41-128.47,581.76-162.41-3.64,36.36-2.42,72.72-1.21,109.08,0,12.12,15.76,19.39,25.45,10.91,65.45-65.45,126.05-133.32,178.16-209.67,2.42-7.27-1.21-16.97-7.27-20.6ZM46.59,559.79c33.94-39.99,70.3-79.99,96.96-124.83,7.27,1.21,15.76-7.27,10.91-15.76-27.88-41.21-61.81-77.57-92.11-117.56,94.54,1.21,187.86,18.18,282.39,27.88,86.05,9.7,176.95,14.54,264.21,16.97,10.91,0,14.54-14.54,6.06-20.6-1.21-1.21-2.42-1.21-3.64-2.42,0-24.24,1.21-48.48,3.64-71.51,44.85,35.15,95.75,58.18,147.86,82.42-42.42,59.39-89.69,113.93-139.38,166.04-1.21-30.3-3.64-60.6-2.42-90.9,0-7.27-6.06-10.91-12.12-10.91-2.42-3.64-6.06-6.06-12.12-4.85-191.49,21.82-357.54,163.62-550.24,166.04Z"/>
</svg>